<?xml version="1.0" encoding="utf-8"?>
<!-- Generator: Adobe Illustrator 24.1.1, SVG Export Plug-In . SVG Version: 6.00 Build 0)  -->
<svg version="1.1" id="Capa_1" focusable="false" xmlns="http://www.w3.org/2000/svg" xmlns:xlink="http://www.w3.org/1999/xlink"
	 x="0px" y="0px" viewBox="0 0 512 512" style="enable-background:new 0 0 512 512;" xml:space="preserve">
<style type="text/css">
	.st0{fill:#FFFFFF;stroke:#000000;stroke-miterlimit:10;}
</style>
<path class="st0" d="M500,224h-30.4c-13.9-93.7-88-167.7-181.6-181.6V12c0-6.6-5.4-12-12-12h-40c-6.6,0-12,5.4-12,12v30.4
	C130.3,56.3,56.3,130.3,42.4,224H12c-6.6,0-12,5.4-12,12v40c0,6.6,5.4,12,12,12h30.4c13.9,93.7,88,167.7,181.6,181.6V500
	c0,6.6,5.4,12,12,12h40c6.6,0,12-5.4,12-12v-30.4c93.7-13.9,167.7-88,181.6-181.6H500c6.6,0,12-5.4,12-12v-40
	C512,229.4,506.6,224,500,224z M288,404.6V364c0-6.6-5.4-12-12-12h-40c-6.6,0-12,5.4-12,12v40.6c-58.2-12.4-104.2-58.4-116.6-116.6
	H148c6.6,0,12-5.4,12-12v-40c0-6.6-5.4-12-12-12h-40.6c12.4-58.2,58.4-104.2,116.6-116.6V148c0,6.6,5.4,12,12,12h40
	c6.6,0,12-5.4,12-12v-40.6c58.2,12.4,104.2,58.4,116.6,116.6H364c-6.6,0-12,5.4-12,12v40c0,6.6,5.4,12,12,12h40.6
	C392.2,346.2,346.2,392.2,288,404.6z M288,256c0,17.7-14.3,32-32,32s-32-14.3-32-32s14.3-32,32-32S288,238.3,288,256z"/>
</svg>
