<?xml version="1.0" encoding="utf-8"?>
<!-- Generator: Adobe Illustrator 24.1.1, SVG Export Plug-In . SVG Version: 6.00 Build 0)  -->
<svg version="1.1" id="Capa_1" focusable="false" xmlns="http://www.w3.org/2000/svg" xmlns:xlink="http://www.w3.org/1999/xlink"
	 x="0px" y="0px" viewBox="0 0 512 512" style="enable-background:new 0 0 512 512;" xml:space="preserve">
<style type="text/css">
	.st0{fill:#FFFFFF;stroke:#000000;stroke-miterlimit:10;}
</style>
<path class="st0" d="M349.6,98.8C296,98.8,251.7,64,184.3,64c-25,0-47.3,4.4-68,12c2.9-7.5,4.1-15.5,3.6-23.6
	C118.1,24,94.8,1.2,66.3,0C34.3-1.3,8,24.3,8,56c0,19,9.5,35.8,24,45.9V488c0,13.3,10.7,24,24,24h16c13.3,0,24-10.7,24-24v-94.4
	c28.3-12.1,63.6-22.1,114.4-22.1c53.6,0,97.8,34.8,165.2,34.8c48.2,0,86.7-16.3,122.5-40.9c8.7-6,13.8-15.8,13.8-26.4V95.9
	c0-23.4-24.3-38.9-45.5-29C432.2,82.9,390.1,98.8,349.6,98.8z"/>
</svg>
